<svg width="26" height="17" viewBox="0 0 26 17" fill="none" xmlns="http://www.w3.org/2000/svg">
<path d="M0.8125 0.984375V16.0156H8.07462C8.74737 16.0156 13.3802 15.8791 13.3802 11.6484C13.3802 9.00456 11.5619 8.10594 10.6389 7.83944C11.3181 7.51931 12.6701 6.75719 12.6701 4.717C12.6701 3.58031 12.5076 0.984375 7.8715 0.984375H0.8125ZM17.3672 2.38106V3.75175H22.9783V2.38188L17.3672 2.38106ZM4.11287 3.54862H7.21094C7.50344 3.54862 9.4705 3.39344 9.4705 5.27519C9.4705 6.88394 8.04862 7.05294 7.46444 7.05294H4.1145L4.11287 3.54862ZM20.3125 4.99569C16.0688 4.99569 15.1832 8.68119 15.1832 10.2769C15.1832 15.0163 19.0686 15.5582 20.3125 15.5582C23.6673 15.5582 24.6187 13.388 25.0096 12.1814H22.5721C22.477 12.4926 21.7661 13.5017 20.4141 13.5017C18.1472 13.5017 17.9514 11.7305 17.9514 10.9375H25.1623C25.3086 8.19531 24.1085 4.99569 20.3125 4.99569ZM20.2361 7.05294C20.9121 7.05294 21.4581 7.24956 21.7856 7.61112C22.1122 7.97675 22.3535 8.50975 22.4193 9.21094H17.9506C17.9636 9.01756 18.0082 8.79494 18.0781 8.55037C18.148 8.30013 18.2561 8.06206 18.434 7.83944C18.6111 7.62088 18.8589 7.43075 19.1449 7.28125C19.4366 7.1285 19.7982 7.05294 20.2361 7.05294ZM4.11369 9.3125H7.69356C8.4045 9.3125 10.0799 9.42381 10.0799 11.4705C10.0799 13.4546 7.96981 13.4514 7.64237 13.4514H4.11287L4.11369 9.3125Z" fill="#111111"/>
</svg>
