<svg width="186" height="49" viewBox="0 0 186 49" fill="none" xmlns="http://www.w3.org/2000/svg">
<path d="M24.0425 27.7564C23.8667 30.1874 22.9667 32.1012 21.3425 33.4977C19.7288 34.8943 17.5977 35.5925 14.9495 35.5925C12.0529 35.5925 9.77191 34.6201 8.10641 32.6753C6.45124 30.7202 5.62366 28.0409 5.62366 24.6374V23.2564C5.62366 21.084 6.00642 19.1702 6.77193 17.515C7.53744 15.8599 8.62882 14.5927 10.0461 13.7133C11.4736 12.8237 13.1288 12.3789 15.0115 12.3789C17.6184 12.3789 19.7184 13.0771 21.3115 14.4737C22.9046 15.8702 23.8253 17.8306 24.0736 20.3547H19.4184C19.3046 18.8961 18.896 17.8409 18.1926 17.1892C17.4995 16.5271 16.4391 16.1961 15.0115 16.1961C13.4598 16.1961 12.296 16.7547 11.5202 17.8719C10.7547 18.9788 10.3616 20.7012 10.3409 23.0392V24.746C10.3409 27.1874 10.7081 28.9719 11.4426 30.0995C12.1874 31.227 13.3564 31.7908 14.9495 31.7908C16.3874 31.7908 17.4581 31.465 18.1615 30.8133C18.8753 30.1512 19.2839 29.1322 19.3874 27.7564H24.0425Z" fill="#9FAAAB"/>
<path d="M47.0483 25.4909H38.1104V31.5426H48.6V35.2822H33.4552V12.6892H48.569V16.4599H38.1104V21.8443H47.0483V25.4909Z" fill="#9FAAAB"/>
<path d="M70.4419 30.6271H62.2799L60.7282 35.2822H55.7782L64.1885 12.6892H68.5023L76.9591 35.2822H72.0092L70.4419 30.6271ZM63.5368 26.8564H69.1851L66.3454 18.3995L63.5368 26.8564Z" fill="#9FAAAB"/>
<path d="M100.57 16.4599H93.6494V35.2822H88.9943V16.4599H82.1667V12.6892H100.57V16.4599Z" fill="#9FAAAB"/>
<path d="M127.983 35.2822H123.328V25.5995H114.25V35.2822H109.595V12.6892H114.25V21.8443H123.328V12.6892H127.983V35.2822Z" fill="#9FAAAB"/>
<path d="M152.013 25.4909H143.075V31.5426H153.564V35.2822H138.42V12.6892H153.533V16.4599H143.075V21.8443H152.013V25.4909Z" fill="#9FAAAB"/>
<path d="M174.367 29.3546C174.367 28.4753 174.056 27.8029 173.436 27.3374C172.815 26.8616 171.698 26.365 170.084 25.8478C168.47 25.3202 167.192 24.8029 166.251 24.296C163.686 22.9098 162.403 21.0426 162.403 18.6944C162.403 17.4737 162.744 16.3875 163.427 15.4358C164.12 14.4737 165.108 13.7237 166.391 13.1858C167.684 12.6478 169.132 12.3789 170.736 12.3789C172.349 12.3789 173.787 12.6737 175.049 13.2633C176.311 13.8427 177.289 14.6651 177.982 15.7306C178.686 16.7961 179.037 18.0064 179.037 19.3616H174.382C174.382 18.3271 174.056 17.5254 173.404 16.9564C172.753 16.3771 171.837 16.0875 170.658 16.0875C169.52 16.0875 168.636 16.3306 168.005 16.8168C167.374 17.2926 167.058 17.9237 167.058 18.7099C167.058 19.4443 167.425 20.0599 168.16 20.5564C168.905 21.053 169.996 21.5185 171.434 21.953C174.082 22.7495 176.011 23.7374 177.222 24.9167C178.432 26.096 179.037 27.565 179.037 29.3236C179.037 31.2788 178.298 32.815 176.818 33.9322C175.339 35.0391 173.348 35.5925 170.844 35.5925C169.106 35.5925 167.523 35.277 166.096 34.646C164.668 34.0046 163.577 33.1305 162.822 32.0236C162.077 30.9167 161.705 29.634 161.705 28.1753H166.375C166.375 30.6684 167.865 31.915 170.844 31.915C171.951 31.915 172.815 31.6926 173.436 31.2477C174.056 30.7926 174.367 30.1615 174.367 29.3546Z" fill="#9FAAAB"/>
<path d="M0.884277 0.0981445H185.884V2.36808H0.884277V0.0981445Z" fill="#9FAAAB"/>
<path d="M0.884277 46.6319H185.884V48.9018H0.884277V46.6319Z" fill="#9FAAAB"/>
</svg>
