<svg width="180" height="71" viewBox="0 0 180 71" fill="none" xmlns="http://www.w3.org/2000/svg">
<path d="M18.4854 16.9585C8.78123 16.9585 0.884033 25.2617 0.884033 35.4648C0.884033 45.6679 8.78123 53.9712 18.4854 53.9712C28.1896 53.9712 36.0868 45.6679 36.0868 35.4648C36.0868 25.2617 28.1896 16.9585 18.4854 16.9585ZM28.0558 43.9088C27.5203 44.4013 26.8511 44.8939 26.1818 45.3161C25.5126 45.8087 24.7095 46.1605 23.9064 46.5827C23.1033 46.9345 22.1663 47.216 21.2294 47.4271C20.2924 47.6382 19.2885 47.7789 18.2177 47.7789C16.6784 47.7789 15.273 47.5678 14.1353 47.216C12.9975 46.8642 12.0606 46.3716 11.3244 45.6679C10.5882 45.0346 10.0528 44.2606 9.71818 43.3458C9.38355 42.4311 9.18279 41.5163 9.18279 40.4608C9.18279 38.9832 9.51741 37.7869 10.1197 36.8018C10.7221 35.8167 11.5921 34.9723 12.596 34.2686C12.0606 33.7057 11.659 33.002 11.3244 32.1576C10.9898 31.3836 10.789 30.5392 10.789 29.5541C10.789 28.5689 10.9898 27.5838 11.3244 26.7394C11.659 25.895 12.1944 25.121 12.7968 24.4877C13.466 23.8544 14.2022 23.3619 15.0722 23.01C15.9422 22.6582 16.8792 22.5174 17.8831 22.5174C19.0208 22.5174 20.0247 22.7285 20.8947 23.0804C21.8317 23.4322 22.5679 23.9247 23.2371 24.558C23.9064 25.1913 24.3749 25.9654 24.7095 26.8098C25.0441 27.6542 25.2449 28.6393 25.2449 29.6948C25.2449 30.891 24.9103 31.9465 24.3079 32.8613C23.7056 33.7761 22.9694 34.5501 22.0994 35.2537L25.178 37.998C25.4457 37.7166 25.7134 37.4351 25.9811 37.0833C26.2488 36.8018 26.5834 36.3796 26.985 35.8166L31.5359 39.8979C31.0674 40.6016 30.532 41.3052 29.9297 41.9385C29.3273 42.7125 28.725 43.3458 28.0558 43.9088ZM26.3157 40.6016C25.9142 41.0238 25.4457 41.3756 25.0441 41.7274C24.241 42.2904 23.2371 42.8533 22.0994 43.3458C20.9617 43.8384 19.6231 44.0495 18.0839 44.0495C17.5485 44.0495 17.0131 43.9791 16.4107 43.8384C15.8753 43.6977 15.3399 43.4866 14.8714 43.2051C14.403 42.9236 14.0014 42.5015 13.7337 42.0089C13.3991 41.5163 13.2652 40.883 13.2652 40.1794C13.2652 39.1239 13.5329 38.3498 14.1353 37.7165C14.6707 37.0832 15.4738 36.5203 16.5446 35.9574L17.5485 35.3945L22.9025 40.0386L23.5718 39.5461L18.3516 34.9723C19.6231 34.2686 20.627 33.4946 21.3632 32.6502C22.0994 31.8058 22.5009 30.8206 22.5009 29.6244C22.5009 28.9911 22.3671 28.4282 22.1663 27.9357C21.8986 27.4431 21.6309 26.9505 21.1624 26.5987C20.7609 26.2469 20.2924 25.9654 19.6901 25.7543C19.1547 25.5432 18.5523 25.4728 17.8831 25.4728C17.3477 25.4728 16.8123 25.5432 16.2769 25.7543C15.7415 25.9654 15.273 26.2469 14.8714 26.5987C14.4699 26.9505 14.1353 27.4431 13.8676 27.9357C13.5999 28.4282 13.5329 29.0615 13.5329 29.6948C13.5329 30.6096 13.7337 31.3836 14.2022 32.0169C14.6707 32.7206 15.273 33.3538 16.0761 34.0575L16.9461 34.8315L16.143 35.2537C15.6746 35.5352 15.1391 35.8167 14.7376 36.0981C14.2691 36.45 13.9345 36.8018 13.5999 37.1536C13.2652 37.5758 12.9975 37.998 12.8637 38.4906C12.6629 38.9832 12.596 39.5461 12.596 40.109C12.596 40.883 12.7298 41.5867 13.0645 42.22C13.3991 42.8533 13.8006 43.2755 14.336 43.6977C14.8714 44.0495 15.4738 44.4013 16.143 44.5421C16.8123 44.7532 17.5485 44.8236 18.2847 44.8236C19.8239 44.8236 21.2294 44.5421 22.5009 44.0495C23.7056 43.5569 24.7764 42.9236 25.6465 42.2903C26.6503 41.5163 27.5204 40.6719 28.3235 39.6868L27.6542 39.1943C27.1188 39.7572 26.7173 40.1794 26.3157 40.6016ZM16.5446 33.4946C15.6076 32.7205 15.0722 32.0169 14.7376 31.454C14.4699 30.891 14.336 30.3281 14.336 29.7652C14.336 28.78 14.6707 27.9356 15.273 27.3023C15.9423 26.669 16.7454 26.3172 17.7492 26.3172C18.2177 26.3172 18.6862 26.3876 19.0877 26.5283C19.5562 26.6691 19.8909 26.8801 20.2924 27.1616C20.627 27.4431 20.8947 27.7949 21.0955 28.2171C21.2963 28.6393 21.4301 29.1319 21.4301 29.6948C21.4301 30.8207 21.0955 31.7354 20.4263 32.4391C19.757 33.1427 18.8201 33.776 17.5485 34.4797L16.5446 33.4946ZM18.887 30.6096C19.0878 30.3281 19.2216 29.9763 19.2216 29.5541C19.2216 28.6393 18.8201 28.2171 17.95 28.2171C17.5485 28.2171 17.2808 28.3578 17.0131 28.5689C16.7453 28.8504 16.6784 29.1319 16.6784 29.5541C16.6784 29.9059 16.7454 30.1873 16.8792 30.5392C17.0131 30.8206 17.3477 31.1725 17.7492 31.5947C18.2846 31.2428 18.6193 30.891 18.887 30.6096ZM16.21 40.0386C16.21 40.6015 16.4107 41.0238 16.8792 41.3052C17.2808 41.5867 17.8162 41.7274 18.3516 41.7274C18.6862 41.7274 19.0208 41.7274 19.4224 41.6571C19.757 41.5867 20.0916 41.5163 20.4263 41.3756L17.1469 38.4202C16.4777 38.8424 16.21 39.4053 16.21 40.0386Z" fill="#9FAAAB"/>
<path d="M19.2214 0H17.749V18.6471H19.2214V0Z" fill="#9FAAAB"/>
<path d="M19.2214 50.3124H17.749V71H19.2214V50.3124Z" fill="#9FAAAB"/>
<path d="M63.4589 32.2596C60.8441 32.2596 58.4783 31.6868 56.3615 30.5413C54.2697 29.3708 52.6261 27.777 51.4307 25.7599C50.2354 23.7178 49.6377 21.4267 49.6377 18.8866C49.6377 16.3465 50.2354 14.0679 51.4307 12.0507C52.6261 10.0087 54.2821 8.41488 56.3989 7.26934C58.5156 6.09889 60.8814 5.51367 63.4963 5.51367C65.5383 5.51367 67.406 5.86231 69.0994 6.5596C70.7928 7.23198 72.2372 8.24056 73.4326 9.58532L71.0045 11.9387C69.0372 9.87171 66.5842 8.83823 63.6457 8.83823C61.7032 8.83823 59.9476 9.27403 58.3787 10.1456C56.8098 11.0172 55.5771 12.225 54.6806 13.769C53.809 15.2881 53.3732 16.994 53.3732 18.8866C53.3732 20.7792 53.809 22.4976 54.6806 24.0416C55.5771 25.5606 56.8098 26.756 58.3787 27.6276C59.9476 28.4992 61.7032 28.935 63.6457 28.935C66.5593 28.935 69.0123 27.8891 71.0045 25.7972L73.4326 28.1506C72.2372 29.4953 70.7804 30.5163 69.0621 31.2136C67.3687 31.9109 65.5009 32.2596 63.4589 32.2596Z" fill="#9FAAAB"/>
<path d="M80.5545 15.4873C81.177 14.3418 82.0984 13.4702 83.3187 12.8725C84.5389 12.2749 86.0207 11.976 87.7639 11.976V15.45C87.5647 15.4251 87.2907 15.4126 86.9421 15.4126C84.9997 15.4126 83.4681 15.9979 82.3475 17.1683C81.2517 18.3138 80.7039 19.9574 80.7039 22.0991V31.9607H77.1178V12.1628H80.5545V15.4873Z" fill="#9FAAAB"/>
<path d="M108.774 22.1738C108.774 22.4478 108.749 22.8088 108.699 23.2571H92.6363C92.8605 25.0003 93.62 26.4073 94.915 27.4782C96.2348 28.5241 97.866 29.0471 99.8084 29.0471C102.174 29.0471 104.079 28.2502 105.524 26.6564L107.503 28.9724C106.607 30.0183 105.486 30.8152 104.142 31.3631C102.822 31.9109 101.34 32.1849 99.6964 32.1849C97.6045 32.1849 95.7492 31.7615 94.1305 30.9148C92.5118 30.0432 91.2542 28.8354 90.3577 27.2914C89.4861 25.7474 89.0503 24.0042 89.0503 22.0618C89.0503 20.1442 89.4736 18.4135 90.3204 16.8695C91.192 15.3255 92.3749 14.1301 93.869 13.2834C95.3881 12.4118 97.094 11.976 98.9866 11.976C100.879 11.976 102.56 12.4118 104.029 13.2834C105.524 14.1301 106.682 15.3255 107.503 16.8695C108.35 18.4135 108.774 20.1816 108.774 22.1738ZM98.9866 15.0017C97.2683 15.0017 95.8239 15.5247 94.6535 16.5706C93.5079 17.6166 92.8356 18.9862 92.6363 20.6796H105.337C105.138 19.0111 104.453 17.6539 103.282 16.608C102.137 15.5372 100.705 15.0017 98.9866 15.0017Z" fill="#9FAAAB"/>
<path d="M119.295 11.976C122.034 11.976 124.126 12.6484 125.57 13.9932C127.04 15.3379 127.774 17.3426 127.774 20.0073V31.9607H124.375V29.3459C123.777 30.2673 122.918 30.9771 121.797 31.4751C120.702 31.9483 119.394 32.1849 117.875 32.1849C115.659 32.1849 113.878 31.6494 112.533 30.5786C111.214 29.5078 110.554 28.1007 110.554 26.3575C110.554 24.6143 111.189 23.2197 112.459 22.1738C113.729 21.103 115.746 20.5676 118.51 20.5676H124.188V19.8578C124.188 18.3138 123.74 17.1309 122.843 16.3091C121.947 15.4873 120.627 15.0764 118.884 15.0764C117.713 15.0764 116.568 15.2757 115.447 15.6741C114.327 16.0477 113.38 16.5582 112.608 17.2057L111.114 14.5161C112.135 13.6943 113.355 13.0718 114.775 12.6484C116.194 12.2001 117.701 11.976 119.295 11.976ZM118.473 29.4206C119.843 29.4206 121.025 29.1218 122.022 28.5241C123.018 27.9015 123.74 27.0299 124.188 25.9093V23.145H118.66C115.621 23.145 114.102 24.1661 114.102 26.2081C114.102 27.2042 114.488 27.9887 115.26 28.5615C116.032 29.1342 117.103 29.4206 118.473 29.4206Z" fill="#9FAAAB"/>
<path d="M144.421 30.8027C143.899 31.251 143.251 31.5996 142.479 31.8487C141.707 32.0728 140.91 32.1849 140.088 32.1849C138.096 32.1849 136.552 31.6494 135.456 30.5786C134.361 29.5078 133.813 27.9762 133.813 25.984V15.1138H130.451V12.1628H133.813V7.82966H137.399V12.1628H143.077V15.1138H137.399V25.8346C137.399 26.9054 137.66 27.7272 138.183 28.3C138.731 28.8727 139.503 29.1591 140.499 29.1591C141.595 29.1591 142.529 28.8478 143.301 28.2253L144.421 30.8027Z" fill="#9FAAAB"/>
<path d="M164.873 22.1738C164.873 22.4478 164.848 22.8088 164.798 23.2571H148.735C148.959 25.0003 149.719 26.4073 151.014 27.4782C152.334 28.5241 153.965 29.0471 155.907 29.0471C158.273 29.0471 160.178 28.2502 161.623 26.6564L163.602 28.9724C162.706 30.0183 161.585 30.8152 160.241 31.3631C158.921 31.9109 157.439 32.1849 155.795 32.1849C153.704 32.1849 151.848 31.7615 150.23 30.9148C148.611 30.0432 147.353 28.8354 146.457 27.2914C145.585 25.7474 145.149 24.0042 145.149 22.0618C145.149 20.1442 145.573 18.4135 146.419 16.8695C147.291 15.3255 148.474 14.1301 149.968 13.2834C151.487 12.4118 153.193 11.976 155.086 11.976C156.978 11.976 158.659 12.4118 160.128 13.2834C161.623 14.1301 162.781 15.3255 163.602 16.8695C164.449 18.4135 164.873 20.1816 164.873 22.1738ZM155.086 15.0017C153.367 15.0017 151.923 15.5247 150.752 16.5706C149.607 17.6166 148.935 18.9862 148.735 20.6796H161.436C161.237 19.0111 160.552 17.6539 159.381 16.608C158.236 15.5372 156.804 15.0017 155.086 15.0017Z" fill="#9FAAAB"/>
<path d="M172.168 15.4873C172.791 14.3418 173.712 13.4702 174.932 12.8725C176.153 12.2749 177.634 11.976 179.377 11.976V15.45C179.178 15.4251 178.904 15.4126 178.556 15.4126C176.613 15.4126 175.082 15.9979 173.961 17.1683C172.865 18.3138 172.317 19.9574 172.317 22.0991V31.9607H168.731V12.1628H172.168V15.4873Z" fill="#9FAAAB"/>
<path d="M55.5024 44.2824V53.3969H68.6138V56.6094H55.5024V67.1808H51.7669V41.0326H70.2201V44.2824H55.5024Z" fill="#9FAAAB"/>
<path d="M80.3511 47.1961C83.0904 47.1961 85.1822 47.8684 86.6266 49.2132C88.0959 50.558 88.8305 52.5627 88.8305 55.2273V67.1808H85.4313V64.5659C84.8336 65.4874 83.9744 66.1971 82.8538 66.6952C81.7581 67.1683 80.4507 67.4049 78.9316 67.4049C76.7152 67.4049 74.9346 66.8695 73.5899 65.7986C72.27 64.7278 71.6101 63.3208 71.6101 61.5776C71.6101 59.8344 72.2451 58.4398 73.5152 57.3939C74.7852 56.323 76.8024 55.7876 79.5666 55.7876H85.2445V55.0779C85.2445 53.5339 84.7962 52.351 83.8997 51.5292C83.0032 50.7074 81.6834 50.2965 79.9402 50.2965C78.7697 50.2965 77.6242 50.4957 76.5035 50.8942C75.3829 51.2677 74.4366 51.7782 73.6646 52.4257L72.1704 49.7362C73.1914 48.9144 74.4117 48.2918 75.8311 47.8684C77.2506 47.4202 78.7573 47.1961 80.3511 47.1961ZM79.5293 64.6407C80.8989 64.6407 82.0818 64.3418 83.0779 63.7441C84.0741 63.1216 84.7962 62.25 85.2445 61.1293V58.3651H79.716C76.6779 58.3651 75.1588 59.3861 75.1588 61.4282C75.1588 62.4243 75.5448 63.2087 76.3168 63.7815C77.0887 64.3543 78.1596 64.6407 79.5293 64.6407Z" fill="#9FAAAB"/>
<path d="M111.501 47.3828L102.834 67.1808H99.1737L90.5074 47.3828H94.2429L101.041 63.2585L107.989 47.3828H111.501Z" fill="#9FAAAB"/>
</svg>
