<svg width="163" height="49" viewBox="0 0 163 49" fill="none" xmlns="http://www.w3.org/2000/svg">
<path d="M2.37744 0.605225L2.37744 48.3947" stroke="#9FAAAB" stroke-width="3"/>
<path d="M23.7031 18.0482H29.4201V20.2111H21.0107V7.14368H23.7031V18.0482Z" fill="#9FAAAB"/>
<path d="M45.8819 17.5187H41.1611L40.2636 20.2111H37.4006L42.265 7.14368H44.76L49.6513 20.2111H46.7883L45.8819 17.5187ZM41.888 15.3378H45.1549L43.5125 10.4464L41.888 15.3378Z" fill="#9FAAAB"/>
<path d="M62.3526 16.9712L65.3143 7.14368H68.3119L63.7617 20.2111H60.9525L56.4202 7.14368H59.4088L62.3526 16.9712Z" fill="#9FAAAB"/>
<path d="M84.7647 14.548H79.5952V18.0482H85.6622V20.2111H76.9027V7.14368H85.6442V9.32458H79.5952V12.4389H84.7647V14.548Z" fill="#9FAAAB"/>
<path d="M105.22 20.2111H102.528L97.2865 11.6132V20.2111H94.594V7.14368H97.2865L102.537 15.7596V7.14368H105.22V20.2111Z" fill="#9FAAAB"/>
<path d="M114.924 20.2111V7.14368H118.945C120.093 7.14368 121.12 7.40395 122.023 7.92449C122.933 8.43905 123.642 9.17499 124.15 10.1323C124.659 11.0837 124.913 12.1666 124.913 13.3812V13.9825C124.913 15.1971 124.662 16.2771 124.159 17.2225C123.662 18.1678 122.959 18.9008 122.05 19.4213C121.141 19.9419 120.114 20.2051 118.972 20.2111H114.924ZM117.616 9.32458V18.0482H118.918C119.971 18.0482 120.776 17.7041 121.332 17.0161C121.888 16.328 122.173 15.3437 122.185 14.0633V13.3723C122.185 12.044 121.909 11.0388 121.359 10.3567C120.808 9.66861 120.004 9.32458 118.945 9.32458H117.616Z" fill="#9FAAAB"/>
<path d="M142.093 14.548H136.923V18.0482H142.99V20.2111H134.231V7.14368H142.972V9.32458H136.923V12.4389H142.093V14.548Z" fill="#9FAAAB"/>
<path d="M156.759 15.4275H154.614V20.2111H151.922V7.14368H156.777C158.321 7.14368 159.512 7.48771 160.349 8.17579C161.187 8.86386 161.606 9.83614 161.606 11.0926C161.606 11.9841 161.411 12.7291 161.023 13.3274C160.64 13.9197 160.056 14.3924 159.272 14.7454L162.1 20.0855V20.2111H159.21L156.759 15.4275ZM154.614 13.2466H156.786C157.463 13.2466 157.986 13.0761 158.357 12.735C158.728 12.388 158.913 11.9123 158.913 11.308C158.913 10.6918 158.737 10.2071 158.384 9.85409C158.037 9.50108 157.501 9.32458 156.777 9.32458H154.614V13.2466Z" fill="#9FAAAB"/>
<path d="M28.388 40.8007H23.6672L22.7697 43.4932H19.9067L24.7711 30.4257H27.2661L32.1575 43.4932H29.2945L28.388 40.8007ZM24.3942 38.6198H27.661L26.0186 33.7285L24.3942 38.6198Z" fill="#9FAAAB"/>
<path d="M50.8719 41.8418C50.3873 42.4222 49.7022 42.8739 48.8167 43.197C47.9311 43.5141 46.9499 43.6727 45.8729 43.6727C44.7421 43.6727 43.7488 43.4274 42.8932 42.9367C42.0436 42.4401 41.3855 41.7221 40.9188 40.7828C40.458 39.8434 40.2217 38.7395 40.2097 37.471V36.5825C40.2097 35.2782 40.4281 34.1503 40.8649 33.199C41.3077 32.2417 41.9419 31.5117 42.7676 31.0091C43.5993 30.5005 44.5715 30.2462 45.6844 30.2462C47.2341 30.2462 48.4457 30.6172 49.3193 31.3591C50.1928 32.0951 50.7104 33.1691 50.8719 34.5811H48.2512C48.1316 33.8332 47.8653 33.2857 47.4525 32.9387C47.0456 32.5917 46.4832 32.4182 45.7652 32.4182C44.8498 32.4182 44.1527 32.7622 43.674 33.4503C43.1954 34.1384 42.9531 35.1615 42.9471 36.5197V37.3544C42.9471 38.7245 43.2074 39.7596 43.7279 40.4597C44.2484 41.1597 45.0113 41.5097 46.0165 41.5097C47.0277 41.5097 47.7486 41.2943 48.1794 40.8635V38.6108H45.7293V36.6274H50.8719V41.8418Z" fill="#9FAAAB"/>
<path d="M68.276 37.83H63.1065V41.3302H69.1735V43.4932H60.414V30.4257H69.1556V32.6066H63.1065V35.7209H68.276V37.83Z" fill="#9FAAAB"/>
<path d="M88.7316 43.4932H86.0391L80.7978 34.8952V43.4932H78.1053V30.4257H80.7978L86.0481 39.0416V30.4257H88.7316V43.4932Z" fill="#9FAAAB"/>
<path d="M108.694 39.1404C108.592 40.5464 108.071 41.6533 107.132 42.4611C106.199 43.2688 104.966 43.6727 103.434 43.6727C101.759 43.6727 100.44 43.1103 99.4763 41.9854C98.519 40.8546 98.0404 39.3049 98.0404 37.3364V36.5376C98.0404 35.2812 98.2617 34.1743 98.7045 33.2169C99.1473 32.2596 99.7785 31.5267 100.598 31.0181C101.424 30.5035 102.381 30.2462 103.47 30.2462C104.978 30.2462 106.193 30.6501 107.114 31.4579C108.035 32.2656 108.568 33.3994 108.712 34.8593H106.019C105.953 34.0157 105.717 33.4054 105.31 33.0285C104.909 32.6455 104.296 32.4541 103.47 32.4541C102.573 32.4541 101.9 32.7772 101.451 33.4234C101.008 34.0636 100.781 35.0598 100.769 36.412V37.3992C100.769 38.8113 100.981 39.8434 101.406 40.4956C101.837 41.1477 102.513 41.4738 103.434 41.4738C104.266 41.4738 104.885 41.2854 105.292 40.9084C105.705 40.5255 105.941 39.9361 106.001 39.1404H108.694Z" fill="#9FAAAB"/>
<path d="M122.319 36.3133L125.039 30.4257H127.982L123.692 38.7544V43.4932H120.955V38.7544L116.665 30.4257H119.618L122.319 36.3133Z" fill="#9FAAAB"/>
</svg>
