<svg width="231" height="51" viewBox="0 0 231 51" fill="none" xmlns="http://www.w3.org/2000/svg">
<path d="M0.900146 12.0439H6.33603L12.1117 28.9909C13.8953 23.3716 18.2271 11.1519 19.8408 8.11928C22.304 3.39195 26.6357 1.25128 31.9867 2.05403L31.3921 7.40573C28.0796 6.87056 25.7863 7.94089 24.4274 10.7951C21.7094 15.8792 14.9146 38.0888 14.8296 38.2672L14.4899 38.5347L10.0732 38.6239L0.900146 12.0439Z" fill="#9FAAAB"/>
<path d="M35.0444 16.3248H31.647V11.5083H43.7928V16.3248H40.1406V33.0935H35.0444V16.3248ZM31.647 33.8962H43.7928V38.7128H31.647V33.8962Z" fill="#9FAAAB"/>
<path d="M54.1562 12.0436H59.4223L67.5761 27.7419V12.0436H72.6723V38.5345L72.3325 38.7129H67.4063L59.2524 22.9254V38.7129H54.1562V12.0436Z" fill="#9FAAAB"/>
<path d="M98.7481 22.7463H79.043V27.9196H98.7481V22.7463Z" fill="#9FAAAB"/>
<path fill-rule="evenodd" clip-rule="evenodd" d="M114.4 0.5C113.848 0.5 113.4 0.947714 113.4 1.5V49.5C113.4 50.0523 113.848 50.5 114.4 50.5H229.067C229.619 50.5 230.067 50.0523 230.067 49.5V1.5C230.067 0.947715 229.619 0.5 229.067 0.5H114.4ZM207.433 29.2697V33.3727H218.9V38.7244H202.252V29.2697H199.279V23.918H215.078V29.2697H207.433ZM207.433 16.9622H218.135V11.6105H202.252V22.9383H207.433V16.9622ZM121.733 17.407H129.378V38.7246H134.559V17.407H142.288V11.9661H121.733V17.407ZM182.886 26.328V31.0553H188.662C187.303 32.4824 185.604 33.3744 183.566 33.3744C179.404 33.3744 176.006 29.8066 176.006 25.436C176.006 21.0655 179.404 17.4977 183.566 17.4977C186.453 17.4977 189.086 19.1924 190.361 21.9574L194.862 19.3708C192.654 14.911 188.322 12.146 183.566 12.146C176.516 12.146 170.91 18.1221 170.91 25.436C170.91 32.75 176.601 38.8153 183.566 38.8153C188.407 38.8153 192.909 36.2286 194.947 31.1445V26.328H182.886ZM153.924 12.4128L158.68 12.3236L167.768 38.9037H165.73H163.946H162.332H150.526H147.893H144.921C147.893 32.1249 153.924 12.4128 153.924 12.4128ZM156.472 21.9566C155.538 24.9001 153.924 29.7166 152.31 34.0872H160.634L156.472 21.9566Z" fill="#9FAAAB"/>
</svg>
