<svg width="162" height="39" viewBox="0 0 162 39" fill="none" xmlns="http://www.w3.org/2000/svg">
<path d="M28.4111 1.87134H21.9649L14.1915 22.0465L6.41809 1.87134H0.0666504L14.1915 38.5001L28.4111 1.87134Z" fill="#9FAAAB"/>
<path d="M42.7262 1.87134H36.7539V38.5001H42.7262V1.87134Z" fill="#9FAAAB"/>
<path d="M64.1502 29.0981C71.3548 29.0981 77.3271 23.0259 77.3271 15.4847C77.3271 8.04142 71.4496 1.87134 64.1502 1.87134C56.8508 1.87134 50.9734 8.04142 50.9734 15.4847C50.9734 23.0259 56.9456 29.0981 64.1502 29.0981ZM64.1502 7.94349C68.2265 7.94349 71.4496 11.2734 71.4496 15.4847C71.4496 19.696 68.2265 23.0259 64.1502 23.0259C60.0739 23.0259 56.8508 19.696 56.8508 15.4847C56.8508 11.2734 60.0739 7.94349 64.1502 7.94349Z" fill="#9FAAAB"/>
<path d="M75.7146 32.4276H52.2996V38.4998H75.7146V32.4276Z" fill="#9FAAAB"/>
<path d="M104.628 32.428H91.5457V1.87134H85.6682V38.5001H104.628V32.428Z" fill="#9FAAAB"/>
<path d="M137.047 32.428H119.32V23.2218H134.014V17.1496H119.32V8.04142H137.047V1.87134H113.348V38.5001H137.047V32.428Z" fill="#9FAAAB"/>
<path d="M150.129 38.5001H156.007V8.04142H161.884V1.87134H144.157V8.04142H150.129V38.5001Z" fill="#9FAAAB"/>
<path d="M64.1498 30.6649C72.2076 30.6649 78.7487 23.9072 78.7487 15.5824C78.7487 7.25772 72.2076 0.5 64.1498 0.5C56.0921 0.5 49.5511 7.25772 49.5511 15.5824C49.4563 23.9072 56.0921 30.6649 64.1498 30.6649ZM64.1498 1.28351C71.8284 1.28351 77.9903 7.64948 77.9903 15.5824C77.9903 23.4175 71.8284 29.8814 64.1498 29.8814C56.4713 29.8814 50.3094 23.5154 50.3094 15.5824C50.3094 7.64948 56.4713 1.28351 64.1498 1.28351Z" fill="#9FAAAB"/>
</svg>
