<?xml version="1.0" encoding="utf-8"?>
<!-- Generator: Adobe Illustrator 26.0.3, SVG Export Plug-In . SVG Version: 6.00 Build 0)  -->
<svg version="1.1" id="Layer_1" xmlns="http://www.w3.org/2000/svg" xmlns:xlink="http://www.w3.org/1999/xlink" x="0px" y="0px"
	 viewBox="0 0 32 32" style="enable-background:new 0 0 32 32;" xml:space="preserve">
<style type="text/css">
	.st0{fill:#00CBD4;}
	.st1{fill:#FFD700;}
</style>
<path class="st0" d="M3.91,8.75c0.9-2.11,2.29-0.93,2.29-0.93c1.47,1.36,0.1,10.06,3.08,10.07c2.98,0.01,1.54-6.24,2.15-9.53
	c0.32-1.61,2.43-1.1,2.69-0.25c0.75,2.52-0.51,12.41-3.12,12.97c-1.38,0.3-2.75,0.1-3.19-0.18C4.81,19,3.4,9.97,3.91,8.75z"/>
<path class="st1" d="M27.14,9.39C28.72,9,28.5,7.82,27.56,6.92c-1.08-1.04-5.8-1.11-7.42,0.18c-0.19,0.15-1.27,1.04-1.4,2.51
	c-0.15,1.68,1.04,2.9,1.29,3.15c1.4,1.43,2.68,0.87,3.55,2.15c0.68,1,0.73,2.6,0,3.33c-0.94,0.94-3.07,0.38-4.16-0.11
	c-1.18-0.53-1.65-1.21-2.54-1.04c-0.86,0.16-1.31,0.96-1.33,1c-0.44,0.81-0.13,1.67-0.07,1.83c0.55,1.43,2.51,1.87,4.23,2.26
	c1.9,0.43,3.03,0.68,4.41,0.14c2.17-0.84,3-2.86,3.08-3.08c0.08-0.19,0.91-2.44-0.25-4.48c-0.75-1.31-1.99-1.97-2.47-2.22
	c-1.52-0.8-2.37-0.51-3.05-1.4c-0.48-0.63-0.73-1.65-0.29-2.26c0.57-0.79,2.05-0.54,2.26-0.5C24.55,8.59,26.72,9.5,27.14,9.39z"/>
</svg>
