<svg width="44" height="46" viewBox="0 0 44 46" fill="none" xmlns="http://www.w3.org/2000/svg">
<path d="M22.0342 0.574951L1.81922 20.7266C1.21846 21.332 0.881348 22.1503 0.881348 23.0032C0.881348 23.8561 1.21846 24.6744 1.81922 25.2798L22.0342 45.4249L23.1847 44.2826C29.0981 38.3919 32.7153 34.7845 34.8538 32.6476L37.0573 30.4408C37.1964 30.3045 37.3308 30.1636 37.4603 30.0183L37.5871 29.8981L37.5773 29.8851L37.6781 29.7583L42.1696 25.2766C42.7871 24.6688 43.1251 23.8612 43.1251 22.9983C43.1251 22.1371 42.7871 21.3311 42.1728 20.7233C39.4705 18.0258 36.3553 14.901 33.2223 11.7598C29.7123 8.24008 26.1812 4.69758 23.1847 1.71408L22.0326 0.574951H22.0342ZM22.0342 5.16233C24.7642 7.88583 27.8517 10.9798 30.923 14.056C34.0462 17.189 37.1532 20.3041 39.8523 22.9967C37.6521 25.1905 36.1018 26.7375 35.0423 27.8555C34.8392 28.0391 34.6345 28.2422 34.4232 28.4502C34.0592 28.8077 33.7017 29.1522 33.6221 29.227L33.6513 29.2594C29.7822 33.121 25.911 36.9804 22.0375 40.8376L4.11372 23.026L22.0326 5.16233H22.0342ZM22.0342 14.7547L13.7581 23L22.0342 31.2452L30.3152 23L22.0342 14.7547ZM22.0342 19.3405L25.71 23L22.0342 26.6595L18.3617 23L22.0342 19.3405Z" fill="#4BA1A7"/>
</svg>
