<svg width="40" height="40" viewBox="0 0 40 40" fill="none" xmlns="http://www.w3.org/2000/svg">
<path d="M34.625 0.550453C33.3802 0.550453 32.1615 1.03308 31.2222 1.97233L15.125 18.0192L14.7691 18.3751L14.6684 18.8837L13.5504 24.5712L13.0434 26.9567L15.4305 26.4497L21.118 25.3317L21.625 25.231L21.9809 24.8751L38.0277 8.77783C38.7003 8.10355 39.1582 7.24526 39.3437 6.31114C39.5291 5.37702 39.4339 4.4089 39.07 3.52882C38.7061 2.64874 38.0898 1.8961 37.2987 1.36578C36.5077 0.835455 35.5773 0.551194 34.625 0.548828V0.550453ZM34.625 3.6997C35.0052 3.6997 35.3806 3.8947 35.743 4.25708C36.4661 4.98183 36.4661 5.76833 35.743 6.49145L20 22.2361L17.2066 22.7951L17.7656 20.0017L33.5086 4.2587C33.8694 3.89795 34.2447 3.70133 34.625 3.70133V3.6997ZM0.5 7.00008V39.5001H33V18.0696L29.75 21.3196V36.2501H3.75V10.2501H18.6805L21.9305 7.00008H0.5Z" fill="#4BA1A7"/>
</svg>
